<svg xmlns="http://www.w3.org/2000/svg" viewBox="0 0 40 40" width="40" height="40">
	<defs>
		<clipPath clipPathUnits="userSpaceOnUse" id="cp1">
			<path d="M0 0L40 0L40 40L0 40Z" />
		</clipPath>
	</defs>
	<style>
		tspan { white-space:pre }
		.shp0 { fill: none;stroke: #5384ff;stroke-linecap:round;stroke-linejoin:round;stroke-width: 4 } 
		.shp1 { fill: #5384ff } 
	</style>
	<g id="Page 1" clip-path="url(#cp1)">
		<path id="Path 1" class="shp0" d="M38 38L2 38L2 6L38 6L38 38ZM28 2L28 10M12 2L12 10" />
		<path id="Path 2" class="shp1" d="M13.06 22L10.94 22C10.42 22 10 21.58 10 21.06L10 18.94C10 18.42 10.42 18 10.94 18L13.06 18C13.58 18 14 18.42 14 18.94L14 21.06C14 21.58 13.58 22 13.06 22ZM21.06 22L18.94 22C18.42 22 18 21.58 18 21.06L18 18.94C18 18.42 18.42 18 18.94 18L21.06 18C21.58 18 22 18.42 22 18.94L22 21.06C22 21.58 21.58 22 21.06 22ZM29.06 22L26.94 22C26.42 22 26 21.58 26 21.06L26 18.94C26 18.42 26.42 18 26.94 18L29.06 18C29.58 18 30 18.42 30 18.94L30 21.06C30 21.58 29.58 22 29.06 22ZM13.06 30L10.94 30C10.42 30 10 29.58 10 29.06L10 26.94C10 26.42 10.42 26 10.94 26L13.06 26C13.58 26 14 26.42 14 26.94L14 29.06C14 29.58 13.58 30 13.06 30ZM21.06 30L18.94 30C18.42 30 18 29.58 18 29.06L18 26.94C18 26.42 18.42 26 18.94 26L21.06 26C21.58 26 22 26.42 22 26.94L22 29.06C22 29.58 21.58 30 21.06 30ZM29.06 30L26.94 30C26.42 30 26 29.58 26 29.06L26 26.94C26 26.42 26.42 26 26.94 26L29.06 26C29.58 26 30 26.42 30 26.94L30 29.06C30 29.58 29.58 30 29.06 30Z" />
	</g>
</svg>