<svg xmlns="http://www.w3.org/2000/svg" viewBox="0 0 94 96" width="94" height="96">
	<defs>
		<clipPath clipPathUnits="userSpaceOnUse" id="cp1">
			<path d="M0 0L94 0L94 96L0 96Z" />
		</clipPath>
	</defs>
	<style>
		tspan { white-space:pre }
		.shp0 { fill: #5183ff } 
	</style>
	<g id="Page 1" clip-path="url(#cp1)">
		<path id="Path 1" fill-rule="evenodd" class="shp0" d="M92.84 47.58C92.84 73.18 72.01 94 46.42 94C20.83 94 0 73.18 0 47.58C0 21.99 20.83 1.16 46.42 1.16C72.01 1.16 92.84 21.99 92.84 47.58ZM85.35 47.58C85.35 26.11 67.89 8.64 46.42 8.64C24.95 8.64 7.48 26.11 7.48 47.58C7.48 69.05 24.95 86.51 46.42 86.51C67.89 86.51 85.35 69.05 85.35 47.58ZM66.5 32.78C67.97 34.24 67.97 36.6 66.5 38.07L42.2 62.39C41.46 63.11 40.5 63.48 39.55 63.48C38.59 63.48 37.64 63.11 36.91 62.39L26.34 51.81C24.87 50.35 24.87 47.98 26.34 46.52C27.79 45.06 30.16 45.06 31.62 46.52L39.55 54.45L61.21 32.78C62.68 31.32 65.05 31.32 66.5 32.78Z" />
	</g>
</svg>