<svg xmlns="http://www.w3.org/2000/svg" viewBox="0 0 858 800" width="858" height="800">
	<style>
		tspan { white-space:pre }
		.shp0 { fill: #f83b7a } 
		.shp1 { fill: #ffffff;stroke: #f83c7b;stroke-width: 70 } 
		.shp2 { fill: #ff3d7e } 
	</style>
	<path id="aHJ1eLcnf" class="shp0" d="M822.04 400C822.04 196.71 645.71 31.66 428.52 31.66C211.33 31.66 35 196.71 35 400C35 603.29 211.33 768.34 428.52 768.34C645.71 768.34 822.04 603.29 822.04 400Z" />
	<path id="aHJ1eLcnf" class="shp1" d="M822.04 400C822.04 196.71 645.71 31.66 428.52 31.66C211.33 31.66 35 196.71 35 400C35 603.29 211.33 768.34 428.52 768.34C645.71 768.34 822.04 603.29 822.04 400Z" />
	<path id="fc5NdBXJv" class="shp2" d="M478.34 400L567.3 484.66L517.48 532.08L428.52 447.41L339.56 532.08L289.74 484.66L378.7 400L289.74 315.34L339.56 267.92L428.52 352.59L517.48 267.92L567.3 315.34L478.34 400Z" />
</svg>