<svg xmlns="http://www.w3.org/2000/svg" viewBox="0 0 150 150" width="18" height="18">
	<defs>
		<clipPath clipPathUnits="userSpaceOnUse" id="cp1">
			<path d="M0 0L150 0L150 150L0 150Z" />
		</clipPath>
	</defs>
	<style>
		tspan { white-space:pre }
		.shp0 { fill: #8391af } 
	</style>
	<g id="Page 1" clip-path="url(#cp1)">
		<path id="Path 1" fill-rule="evenodd" class="shp0" d="M46.68 1.33L85 1.33L85 2.16C85 6.46 77.31 7.28 72.05 7.99C70.28 8.23 66.71 8.61 65.69 9.13C75.39 14.31 76.97 22.45 76.97 34.6C76.97 48.41 71.56 55.72 65.82 60.85C62.27 64.03 59.46 66.54 59.46 69.87C59.46 73.14 63.31 76.51 67.75 80.41C75.03 86.81 85 95.56 85 110.27C85 125.49 78.45 136.38 65.55 142.64C55.61 147.48 44.9 148 40.75 148C39.97 148 39.51 147.98 39.44 147.98C39.44 147.98 39.14 147.99 38.64 147.99C32.18 147.99 0 146.5 0 117.19C0 88.39 35.04 86.15 45.79 86.14L46.06 86.15C39.86 77.87 41.15 69.51 41.15 69.51C40.59 69.55 39.81 69.59 38.83 69.59C34.78 69.59 26.99 68.94 20.28 64.61C12.08 59.33 7.93 50.35 7.93 37.91C7.93 2.76 46.29 1.34 46.68 1.33ZM45.36 93.66C44.51 93.66 43.64 93.69 42.78 93.75C35.44 94.29 28.7 97.03 23.79 101.48C18.95 105.87 16.47 111.38 16.83 117.01C17.56 128.71 30.15 135.59 45.44 134.48C60.49 133.38 70.52 124.73 69.78 113.01C69.09 101.98 59.5 93.66 45.36 93.66ZM39.36 11.72C38.26 11.72 37.19 11.88 36.15 12.17C31.81 13.39 28.38 17.01 26.46 22.38C24.5 27.83 24.37 33.5 26.07 39.99C29.11 51.54 37.32 59.93 45.61 59.93C46.7 59.93 47.78 59.77 48.81 59.48C57.86 56.93 63.54 43.11 59.78 29.88C55.79 15.88 49.36 11.72 39.36 11.72ZM149.35 58.68L149.35 74.52L124.35 74.52L124.35 99.52L108.51 99.52L108.51 74.52L83.51 74.52L83.51 58.68L108.51 58.68L108.51 33.68L124.35 33.68L124.35 58.68L149.35 58.68Z" />
	</g>
</svg>