<svg xmlns="http://www.w3.org/2000/svg" viewBox="0 0 316 315" width="316" height="315">
	<defs>
		<linearGradient id="grd1" gradientUnits="userSpaceOnUse"  x1="32.009" y1="252.977" x2="226.395" y2="89.868">
			<stop offset="0" stop-color="#5794ff"  />
			<stop offset="1" stop-color="#2b4d77"  />
		</linearGradient>
		<linearGradient id="grd2" gradientUnits="userSpaceOnUse"  x1="79.152" y1="116.732" x2="310.77" y2="196.484">
			<stop offset="0" stop-color="#5794ff"  />
			<stop offset="1" stop-color="#2b4d77"  />
		</linearGradient>
		<linearGradient id="grd3" gradientUnits="userSpaceOnUse"  x1="100.168" y1="3.936" x2="259.121" y2="239.594">
			<stop offset="0" stop-color="#5794ff"  />
			<stop offset="1" stop-color="#2b4d77"  />
		</linearGradient>
	</defs>
	<style>
		tspan { white-space:pre }
		.shp0 { fill: #1c344c } 
		.shp1 { fill: url(#grd1) } 
		.shp2 { fill: url(#grd2) } 
		.shp3 { fill: url(#grd3) } 
	</style>
	<path id="Path 1" fill-rule="evenodd" class="shp0" d="M315.07 157.22C315.07 244.04 244.69 314.43 157.87 314.43C71.04 314.43 0.66 244.04 0.66 157.22C0.66 70.39 71.04 0.01 157.87 0.01C244.69 0.01 315.07 70.39 315.07 157.22ZM235.04 157.22C235.04 114.6 200.49 80.05 157.87 80.05C115.25 80.05 80.7 114.6 80.7 157.22C80.7 199.84 115.25 234.39 157.87 234.39C200.49 234.39 235.04 199.84 235.04 157.22Z" />
	<path id="Path 2" class="shp1" d="M117.42 5.19C49.85 22.92 0 84.37 0 157.5C0 244.48 70.52 315 157.5 315C171.32 315 184.73 313.21 197.5 309.86C129.89 292.16 80 230.66 80 157.5C80 114.7 114.7 80 157.5 80C200.3 80 235 114.7 235 157.5L235.04 157.5C235.04 84.34 185.18 22.85 117.57 5.15L117.42 5.19Z" />
	<path id="Path 3" class="shp2" d="M157.57 0.01C143.75 0.01 130.35 1.8 117.57 5.15C185.18 22.85 235.07 84.35 235.07 157.51C235.07 200.31 200.38 235.01 157.57 235.01C114.77 235.01 80.07 200.31 80.07 157.51L80.04 157.51C80.04 230.67 129.9 292.16 197.51 309.86L197.65 309.82C265.22 292.09 315.07 230.64 315.07 157.51C315.07 70.52 244.56 0.01 157.57 0.01Z" />
	<path id="Path 4" class="shp3" d="M157.39 0.01C117.18 0.08 77 15.46 46.32 46.14C36.54 55.91 28.34 66.66 21.67 78.06C81.99 42.77 160.76 50.97 212.49 102.71C242.75 132.97 242.75 182.04 212.49 212.31C182.22 242.58 133.15 242.58 102.89 212.31L102.86 212.33C154.59 264.07 233.33 272.29 293.65 237L293.73 236.87C328.97 176.55 320.77 97.85 269.06 46.14C238.38 15.46 198.2 0.08 157.99 0.01L157.39 0.01Z" />
</svg>